<?xml version="1.0" encoding="UTF-8" standalone="no"?>
<svg width="925.9775" height="925.9775" viewBox="0 0 925.9775 925.9775" xmlns="http://www.w3.org/2000/svg">
<rect width="100%" height="100%" fill="white"/>
<g transform="translate(75.59, 75.59)">
<g stroke="#000" stroke-width="0.5" stroke-dasharray="1,2">
<line x1="0.0" y1="0" x2="0.0" y2="774.7975"/>
<line x1="18.8975" y1="0" x2="18.8975" y2="774.7975"/>
<line x1="37.795" y1="0" x2="37.795" y2="774.7975"/>
<line x1="56.6925" y1="0" x2="56.6925" y2="774.7975"/>
<line x1="75.59" y1="0" x2="75.59" y2="774.7975"/>
<line x1="94.48750000000001" y1="0" x2="94.48750000000001" y2="774.7975"/>
<line x1="113.385" y1="0" x2="113.385" y2="774.7975"/>
<line x1="132.2825" y1="0" x2="132.2825" y2="774.7975"/>
<line x1="151.18" y1="0" x2="151.18" y2="774.7975"/>
<line x1="170.07750000000001" y1="0" x2="170.07750000000001" y2="774.7975"/>
<line x1="188.97500000000002" y1="0" x2="188.97500000000002" y2="774.7975"/>
<line x1="207.8725" y1="0" x2="207.8725" y2="774.7975"/>
<line x1="226.77" y1="0" x2="226.77" y2="774.7975"/>
<line x1="245.66750000000002" y1="0" x2="245.66750000000002" y2="774.7975"/>
<line x1="264.565" y1="0" x2="264.565" y2="774.7975"/>
<line x1="283.46250000000003" y1="0" x2="283.46250000000003" y2="774.7975"/>
<line x1="302.36" y1="0" x2="302.36" y2="774.7975"/>
<line x1="321.2575" y1="0" x2="321.2575" y2="774.7975"/>
<line x1="340.15500000000003" y1="0" x2="340.15500000000003" y2="774.7975"/>
<line x1="359.0525" y1="0" x2="359.0525" y2="774.7975"/>
<line x1="377.95000000000005" y1="0" x2="377.95000000000005" y2="774.7975"/>
<line x1="396.8475" y1="0" x2="396.8475" y2="774.7975"/>
<line x1="415.745" y1="0" x2="415.745" y2="774.7975"/>
<line x1="434.64250000000004" y1="0" x2="434.64250000000004" y2="774.7975"/>
<line x1="453.54" y1="0" x2="453.54" y2="774.7975"/>
<line x1="472.4375" y1="0" x2="472.4375" y2="774.7975"/>
<line x1="491.33500000000004" y1="0" x2="491.33500000000004" y2="774.7975"/>
<line x1="510.2325" y1="0" x2="510.2325" y2="774.7975"/>
<line x1="529.13" y1="0" x2="529.13" y2="774.7975"/>
<line x1="548.0275" y1="0" x2="548.0275" y2="774.7975"/>
<line x1="566.9250000000001" y1="0" x2="566.9250000000001" y2="774.7975"/>
<line x1="585.8225" y1="0" x2="585.8225" y2="774.7975"/>
<line x1="604.72" y1="0" x2="604.72" y2="774.7975"/>
<line x1="623.6175000000001" y1="0" x2="623.6175000000001" y2="774.7975"/>
<line x1="642.515" y1="0" x2="642.515" y2="774.7975"/>
<line x1="661.4125" y1="0" x2="661.4125" y2="774.7975"/>
<line x1="680.3100000000001" y1="0" x2="680.3100000000001" y2="774.7975"/>
<line x1="699.2075" y1="0" x2="699.2075" y2="774.7975"/>
<line x1="718.105" y1="0" x2="718.105" y2="774.7975"/>
<line x1="737.0025" y1="0" x2="737.0025" y2="774.7975"/>
<line x1="755.9000000000001" y1="0" x2="755.9000000000001" y2="774.7975"/>
<line x1="774.7975" y1="0" x2="774.7975" y2="774.7975"/>
<line x1="0" y1="0.0" x2="774.7975" y2="0.0"/>
<line x1="0" y1="18.8975" x2="774.7975" y2="18.8975"/>
<line x1="0" y1="37.795" x2="774.7975" y2="37.795"/>
<line x1="0" y1="56.6925" x2="774.7975" y2="56.6925"/>
<line x1="0" y1="75.59" x2="774.7975" y2="75.59"/>
<line x1="0" y1="94.48750000000001" x2="774.7975" y2="94.48750000000001"/>
<line x1="0" y1="113.385" x2="774.7975" y2="113.385"/>
<line x1="0" y1="132.2825" x2="774.7975" y2="132.2825"/>
<line x1="0" y1="151.18" x2="774.7975" y2="151.18"/>
<line x1="0" y1="170.07750000000001" x2="774.7975" y2="170.07750000000001"/>
<line x1="0" y1="188.97500000000002" x2="774.7975" y2="188.97500000000002"/>
<line x1="0" y1="207.8725" x2="774.7975" y2="207.8725"/>
<line x1="0" y1="226.77" x2="774.7975" y2="226.77"/>
<line x1="0" y1="245.66750000000002" x2="774.7975" y2="245.66750000000002"/>
<line x1="0" y1="264.565" x2="774.7975" y2="264.565"/>
<line x1="0" y1="283.46250000000003" x2="774.7975" y2="283.46250000000003"/>
<line x1="0" y1="302.36" x2="774.7975" y2="302.36"/>
<line x1="0" y1="321.2575" x2="774.7975" y2="321.2575"/>
<line x1="0" y1="340.15500000000003" x2="774.7975" y2="340.15500000000003"/>
<line x1="0" y1="359.0525" x2="774.7975" y2="359.0525"/>
<line x1="0" y1="377.95000000000005" x2="774.7975" y2="377.95000000000005"/>
<line x1="0" y1="396.8475" x2="774.7975" y2="396.8475"/>
<line x1="0" y1="415.745" x2="774.7975" y2="415.745"/>
<line x1="0" y1="434.64250000000004" x2="774.7975" y2="434.64250000000004"/>
<line x1="0" y1="453.54" x2="774.7975" y2="453.54"/>
<line x1="0" y1="472.4375" x2="774.7975" y2="472.4375"/>
<line x1="0" y1="491.33500000000004" x2="774.7975" y2="491.33500000000004"/>
<line x1="0" y1="510.2325" x2="774.7975" y2="510.2325"/>
<line x1="0" y1="529.13" x2="774.7975" y2="529.13"/>
<line x1="0" y1="548.0275" x2="774.7975" y2="548.0275"/>
<line x1="0" y1="566.9250000000001" x2="774.7975" y2="566.9250000000001"/>
<line x1="0" y1="585.8225" x2="774.7975" y2="585.8225"/>
<line x1="0" y1="604.72" x2="774.7975" y2="604.72"/>
<line x1="0" y1="623.6175000000001" x2="774.7975" y2="623.6175000000001"/>
<line x1="0" y1="642.515" x2="774.7975" y2="642.515"/>
<line x1="0" y1="661.4125" x2="774.7975" y2="661.4125"/>
<line x1="0" y1="680.3100000000001" x2="774.7975" y2="680.3100000000001"/>
<line x1="0" y1="699.2075" x2="774.7975" y2="699.2075"/>
<line x1="0" y1="718.105" x2="774.7975" y2="718.105"/>
<line x1="0" y1="737.0025" x2="774.7975" y2="737.0025"/>
<line x1="0" y1="755.9000000000001" x2="774.7975" y2="755.9000000000001"/>
<line x1="0" y1="774.7975" x2="774.7975" y2="774.7975"/>
</g>
<g stroke="#000" stroke-width="1.5">
<line x1="0.0" y1="0" x2="0.0" y2="774.7975"/>
<line x1="132.2825" y1="0" x2="132.2825" y2="774.7975"/>
<line x1="264.565" y1="0" x2="264.565" y2="774.7975"/>
<line x1="396.8475" y1="0" x2="396.8475" y2="774.7975"/>
<line x1="529.13" y1="0" x2="529.13" y2="774.7975"/>
<line x1="642.515" y1="0" x2="642.515" y2="774.7975"/>
<line x1="774.7975" y1="0" x2="774.7975" y2="774.7975"/>
<line x1="0" y1="0.0" x2="774.7975" y2="0.0"/>
<line x1="0" y1="132.2825" x2="774.7975" y2="132.2825"/>
<line x1="0" y1="264.565" x2="774.7975" y2="264.565"/>
<line x1="0" y1="396.8475" x2="774.7975" y2="396.8475"/>
<line x1="0" y1="529.13" x2="774.7975" y2="529.13"/>
<line x1="0" y1="642.515" x2="774.7975" y2="642.515"/>
<line x1="0" y1="774.7975" x2="774.7975" y2="774.7975"/>
</g>
<rect x="0.0" y="0.0" width="132.2825" height="132.2825" fill="black"/>
<rect x="18.8975" y="18.8975" width="94.48750000000001" height="94.48750000000001" fill="white"/>
<rect x="37.795" y="37.795" width="56.6925" height="56.6925" fill="black"/>
<rect x="642.515" y="0.0" width="132.2825" height="132.2825" fill="black"/>
<rect x="661.4125" y="18.8975" width="94.48750000000001" height="94.48750000000001" fill="white"/>
<rect x="680.3100000000001" y="37.795" width="56.6925" height="56.6925" fill="black"/>
<rect x="0.0" y="642.515" width="132.2825" height="132.2825" fill="black"/>
<rect x="18.8975" y="661.4125" width="94.48750000000001" height="94.48750000000001" fill="white"/>
<rect x="37.795" y="680.3100000000001" width="56.6925" height="56.6925" fill="black"/>
<rect x="604.72" y="604.72" width="94.48750000000001" height="94.48750000000001" fill="black"/>
<rect x="623.6175000000001" y="623.6175000000001" width="56.6925" height="56.6925" fill="white"/>
<rect x="642.515" y="642.515" width="18.8975" height="18.8975" fill="black"/>
<rect x="151.18" y="113.385" width="18.8975" height="18.8975" fill="black"/>
<rect x="188.97500000000002" y="113.385" width="18.8975" height="18.8975" fill="black"/>
<rect x="226.77" y="113.385" width="18.8975" height="18.8975" fill="black"/>
<rect x="264.565" y="113.385" width="18.8975" height="18.8975" fill="black"/>
<rect x="302.36" y="113.385" width="18.8975" height="18.8975" fill="black"/>
<rect x="340.15500000000003" y="113.385" width="18.8975" height="18.8975" fill="black"/>
<rect x="377.95000000000005" y="113.385" width="18.8975" height="18.8975" fill="black"/>
<rect x="415.745" y="113.385" width="18.8975" height="18.8975" fill="black"/>
<rect x="453.54" y="113.385" width="18.8975" height="18.8975" fill="black"/>
<rect x="491.33500000000004" y="113.385" width="18.8975" height="18.8975" fill="black"/>
<rect x="529.13" y="113.385" width="18.8975" height="18.8975" fill="black"/>
<rect x="566.9250000000001" y="113.385" width="18.8975" height="18.8975" fill="black"/>
<rect x="604.72" y="113.385" width="18.8975" height="18.8975" fill="black"/>
<rect x="113.385" y="151.18" width="18.8975" height="18.8975" fill="black"/>
<rect x="113.385" y="188.97500000000002" width="18.8975" height="18.8975" fill="black"/>
<rect x="113.385" y="226.77" width="18.8975" height="18.8975" fill="black"/>
<rect x="113.385" y="264.565" width="18.8975" height="18.8975" fill="black"/>
<rect x="113.385" y="302.36" width="18.8975" height="18.8975" fill="black"/>
<rect x="113.385" y="340.15500000000003" width="18.8975" height="18.8975" fill="black"/>
<rect x="113.385" y="377.95000000000005" width="18.8975" height="18.8975" fill="black"/>
<rect x="113.385" y="415.745" width="18.8975" height="18.8975" fill="black"/>
<rect x="113.385" y="453.54" width="18.8975" height="18.8975" fill="black"/>
<rect x="113.385" y="491.33500000000004" width="18.8975" height="18.8975" fill="black"/>
<rect x="113.385" y="529.13" width="18.8975" height="18.8975" fill="black"/>
<rect x="113.385" y="566.9250000000001" width="18.8975" height="18.8975" fill="black"/>
<rect x="113.385" y="604.72" width="18.8975" height="18.8975" fill="black"/>
</g>
</svg>